<svg xmlns="http://www.w3.org/2000/svg" width="358.865" height="324.35" viewBox="0 0 358.86523 324.34961"><g transform="translate(-217.258 -225.06)" fill="#fff"><path style="isolation:auto;mix-blend-mode:normal" d="M233.807 225.06c-9.168 0-16.55 7.38-16.55 16.547V532.86c0 9.17 7.382 16.548 16.55 16.548h325.767c9.168 0 16.55-7.38 16.55-16.547V241.61c0-9.167-7.382-16.548-16.55-16.548H233.807zm21.62 15.563a10.657 10.657 0 0 1 10.657 10.656 10.657 10.657 0 0 1-10.656 10.65 10.657 10.657 0 0 1-10.657-10.66 10.657 10.657 0 0 1 10.66-10.657zm28.88.04a10.657 10.657 0 0 1 10.656 10.657 10.657 10.657 0 0 1-10.656 10.66 10.657 10.657 0 0 1-10.66-10.66 10.657 10.657 0 0 1 10.66-10.656zm30.005 0a10.657 10.657 0 0 1 10.657 10.657 10.657 10.657 0 0 1-10.66 10.66 10.657 10.657 0 0 1-10.66-10.66 10.657 10.657 0 0 1 10.66-10.656zM237.71 281.12h317.275v247.74H237.71V281.12z" color="#000" overflow="visible" solid-color="#000000"/><rect style="isolation:auto;mix-blend-mode:normal" width="19.132" height="162.285" x="521.609" y="116.955" transform="matrix(.9056 .42414 -.41904 .90797 0 0)" ry="9.566" color="#000" overflow="visible" solid-color="#000000"/><path d="M344.526 366.542c-2.75-5.85-8.32-5.638-11.45-5.224-4.28.566-62.523 30.84-62.523 30.84l.02 20.12s59.912 30.515 62.358 31.01c4.63.938 9.44-1.534 11.3-5.17 1.72-3.353 1.49-8.333-1.41-11.366-1.443-1.514-50.78-24.855-50.78-24.855s47.54-20.82 50.15-23.36c1.83-1.78 4.97-6.407 2.34-11.995zm110.406.408c2.75-5.85 8.32-5.638 11.45-5.224 4.28.566 62.524 30.84 62.524 30.84l-.02 20.12s-59.912 30.516-62.36 31.01c-4.62.938-9.432-1.534-11.297-5.17-1.72-3.352-1.49-8.333 1.41-11.366 1.442-1.514 50.78-24.854 50.78-24.854s-47.54-20.82-50.15-23.362c-1.83-1.778-4.97-6.405-2.34-11.994z" fill-rule="evenodd"/></g></svg>